<?xml version="1.0" encoding="UTF-8"?>
<!DOCTYPE svg PUBLIC "-//W3C//DTD SVG 1.1//EN" "http://www.w3.org/Graphics/SVG/1.1/DTD/svg11.dtd">
<svg xmlns="http://www.w3.org/2000/svg" version="1.1" width="43" height="28" viewBox="0 0 43 28" fill="none"  xmlns:xlink="http://www.w3.org/1999/xlink">
<g><path style="opacity:0.853" fill="#020202" d="M 154.5,205.5 C 165.932,206.097 172.432,212.097 174,223.5C 176.147,218.05 178.48,212.716 181,207.5C 184,206.167 187,206.167 190,207.5C 194.269,218.142 198.435,228.808 202.5,239.5C 202.291,240.086 201.957,240.586 201.5,241C 195.613,242.892 191.947,240.892 190.5,235C 186.833,234.333 183.167,234.333 179.5,235C 178.671,236.816 177.837,238.649 177,240.5C 175.989,241.337 174.822,241.67 173.5,241.5C 174.403,245.757 172.736,248.257 168.5,249C 166.5,249.667 164.5,249.667 162.5,249C 157.775,246.285 152.775,245.785 147.5,247.5C 147.104,244.956 147.771,242.789 149.5,241C 137.034,232.403 135.367,222.07 144.5,210C 147.564,207.63 150.897,206.13 154.5,205.5 Z M 152.5,215.5 C 159.643,214.054 163.31,216.888 163.5,224C 163.402,229.265 160.735,232.098 155.5,232.5C 149.441,230.72 147.274,226.72 149,220.5C 149.257,218.093 150.424,216.427 152.5,215.5 Z M 184.5,221.5 C 186.104,222.287 186.771,223.62 186.5,225.5C 185.5,225.5 184.5,225.5 183.5,225.5C 183.433,224.041 183.766,222.708 184.5,221.5 Z"/></g>
<g><path style="opacity:0.71" fill="#070707" d="M 321.5,206.5 C 326.083,205.343 328.75,207.01 329.5,211.5C 327.838,216.664 324.838,217.664 320.5,214.5C 319.211,211.648 319.544,208.982 321.5,206.5 Z"/></g>
<g><path style="opacity:0.866" fill="#050404" d="M 206.5,206.5 C 212.842,206.334 219.175,206.5 225.5,207C 227.013,209.916 226.68,212.582 224.5,215C 221.518,215.498 218.518,215.665 215.5,215.5C 215.5,216.833 215.5,218.167 215.5,219.5C 219.868,219.63 224.202,219.297 228.5,218.5C 231.953,218.592 234.786,219.925 237,222.5C 238.698,220.148 241.032,218.815 244,218.5C 250.106,219.053 256.272,219.053 262.5,218.5C 266.485,218.487 269.485,220.154 271.5,223.5C 277.339,217.76 283.672,217.093 290.5,221.5C 293.608,219.227 296.942,218.893 300.5,220.5C 302.943,218.945 305.61,218.278 308.5,218.5C 308.244,216.208 308.577,214.041 309.5,212C 312.146,211.503 314.813,211.336 317.5,211.5C 317.248,214.32 317.748,216.986 319,219.5C 322.112,218.427 325.279,218.427 328.5,219.5C 328.343,220.873 328.51,222.207 329,223.5C 330.873,219.973 333.873,218.307 338,218.5C 341.073,218.523 343.74,219.523 346,221.5C 350.879,218.216 356.046,217.716 361.5,220C 365.473,222.783 367.139,226.616 366.5,231.5C 361.786,231.173 357.12,231.507 352.5,232.5C 355.001,234.647 357.668,234.647 360.5,232.5C 364.558,232.712 366.058,234.712 365,238.5C 358.504,242.462 352.004,242.462 345.5,238.5C 342.509,240.663 339.176,241.663 335.5,241.5C 327.89,241.302 320.223,241.136 312.5,241C 308.858,236.917 307.525,232.084 308.5,226.5C 304.529,225.758 301.696,227.091 300,230.5C 299.501,234.152 299.335,237.818 299.5,241.5C 296.276,241.797 293.276,241.13 290.5,239.5C 286.364,241.447 282.03,241.947 277.5,241C 274.943,240.315 273.109,238.815 272,236.5C 267.776,241.257 262.61,242.757 256.5,241C 259.663,249 256.996,252.5 248.5,251.5C 248.5,248.167 248.5,244.833 248.5,241.5C 243.365,242.574 239.532,240.907 237,236.5C 235.68,238.654 233.847,240.154 231.5,241C 223.118,241.803 214.785,241.636 206.5,240.5C 205.191,229.105 205.191,217.772 206.5,206.5 Z M 246.5,222.5 C 247.239,222.369 247.906,222.536 248.5,223C 248.872,227.155 248.372,231.322 247,235.5C 245.06,233.955 243.894,231.955 243.5,229.5C 244.767,227.297 245.767,224.963 246.5,222.5 Z M 226.5,224.5 C 231.603,227.44 231.77,230.773 227,234.5C 223.424,232.623 219.757,232.289 216,233.5C 215.506,231.866 215.34,230.199 215.5,228.5C 218.518,228.665 221.518,228.498 224.5,228C 225.823,227.184 226.489,226.017 226.5,224.5 Z M 280.5,224.5 C 281.376,224.369 282.043,224.702 282.5,225.5C 280.192,226.873 279.525,226.54 280.5,224.5 Z M 353.5,224.5 C 354.756,224.461 355.756,224.961 356.5,226C 355.167,226.667 353.833,226.667 352.5,226C 353.056,225.617 353.389,225.117 353.5,224.5 Z M 318.5,225.5 C 320.026,226.492 320.693,227.992 320.5,230C 320.167,231.167 319.833,232.333 319.5,233.5C 317.526,230.967 317.192,228.3 318.5,225.5 Z M 337.5,226.5 C 339.288,225.378 341.288,225.211 343.5,226C 342.874,226.75 342.374,227.584 342,228.5C 340.951,226.893 339.451,226.227 337.5,226.5 Z M 258.5,226.5 C 263.651,226.654 264.984,228.82 262.5,233C 256.681,233.526 255.348,231.359 258.5,226.5 Z M 329.5,230.5 C 331.23,231.026 332.564,232.026 333.5,233.5C 331.368,233.446 330.035,232.446 329.5,230.5 Z M 279.5,231.5 C 283.555,231.176 287.555,231.509 291.5,232.5C 288.389,232.343 285.222,233.01 282,234.5C 280.251,234.252 279.418,233.252 279.5,231.5 Z"/></g>
</svg>
